<svg width="72" height="67" viewBox="0 0 72 67" fill="none" xmlns="http://www.w3.org/2000/svg">
<path d="M49.1946 23.4938C49.4905 23.4062 49.6726 23.3186 49.8602 23.3049C50.1415 23.2848 50.3345 23.4217 50.3108 23.7365C50.1697 25.6251 50.0523 27.5165 49.8666 29.4007C49.7873 30.2054 49.4341 30.9052 48.6921 31.3605C48.5637 31.439 48.5145 31.7218 48.5073 31.9125C48.4463 33.5393 48.1549 35.1214 47.3719 36.5539C46.9413 37.3431 46.3267 38.0302 45.8169 38.7783C45.674 38.9882 45.5219 39.2482 45.5183 39.4882C45.4928 41.2044 45.5155 42.9216 45.4964 44.6378C45.4919 45.0338 45.6111 45.219 46.0136 45.2528C46.5325 45.2965 46.7628 45.5757 46.944 46.1113C47.4393 47.5721 48.0621 48.9909 48.6548 50.4179C48.7139 50.5611 48.8933 50.6934 49.0472 50.7536C55.3547 53.218 61.5166 56.02 67.6593 58.8594C70.0447 59.9625 71.5196 61.9817 72.1715 64.5072C72.3955 65.3749 72.2143 66.3493 72.2097 67.2754C72.2088 67.5482 72.1679 67.8211 72.1624 68.0939C72.1214 70.5382 72.0805 72.9834 72.0477 75.4278C72.0313 76.6476 72.0386 76.6476 70.8277 76.6476C47.3656 76.6476 23.9034 76.6476 0.442233 76.6476C-0.265182 76.6476 -0.266092 76.6476 -0.266092 75.9323C-0.266092 72.4232 -0.228764 68.9141 -0.28339 65.4059C-0.307062 63.9005 0.201876 62.6596 1.22977 61.6404C1.90349 60.9725 2.64915 60.3539 3.44305 59.8366C6.52035 57.8311 9.72511 56.0529 13.1329 54.6706C16.2603 53.4023 19.404 52.1733 22.546 50.9434C22.8464 50.8257 23.0121 50.6578 23.1104 50.3604C23.6066 48.864 24.1192 47.3723 24.62 45.8777C24.8093 45.3121 24.9741 45.1633 25.5759 45.1998C25.9401 45.2217 26.0949 45.1725 26.1322 44.7418C26.2852 42.9462 26.4946 41.1552 26.6721 39.3614C26.6848 39.2291 26.6539 39.0438 26.5692 38.959C25.474 37.8696 24.8011 36.5329 24.3933 35.0722C24.0846 33.9663 23.8479 32.834 23.6831 31.6981C23.603 31.147 23.2361 30.8204 22.9384 30.4965C22.4376 29.9517 22.2255 29.3222 22.139 28.6561C21.9387 27.1096 21.8122 25.554 21.6583 24.0011C21.6465 23.8806 21.6537 23.7584 21.6556 23.637C21.6692 22.5978 21.9123 22.4418 22.8683 22.9436C22.8847 22.762 22.9092 22.6105 22.9101 22.4591C22.9475 18.8597 22.9602 15.2602 23.0258 11.6617C23.0576 9.93088 23.6795 8.42359 24.9067 7.15808C26.5774 5.43547 28.5421 4.13985 30.6589 3.06139C32.8904 1.92454 35.1784 0.897172 37.6912 0.594254C39.5221 0.371627 41.3694 0.30411 43.2085 0.169986C43.2485 0.167249 43.2904 0.194621 43.4707 0.253927C42.9818 0.762136 42.5602 1.24297 42.0923 1.67271C41.8055 1.9364 41.6289 2.20465 41.7691 2.58147C41.8282 2.74023 41.9512 2.93092 42.0941 2.99387C43.9587 3.81413 45.4281 5.13985 46.7219 6.66904C47.4247 7.50024 48.012 8.42906 48.6839 9.28855C49.2283 9.98471 49.4095 10.7758 49.4031 11.6252C49.3776 14.9947 49.3458 18.3642 49.3057 21.7337C49.2975 22.3049 49.2347 22.8761 49.1946 23.4938Z" fill="#C3E9CD"/>
</svg>
